<svg width="0" height="0" class="hidden">
  <symbol fill="#000000" version="1.1" id="quotes" xmlns="http://www.w3.org/2000/svg" xmlns:xlink="http://www.w3.org/1999/xlink" xml:space="preserve" viewBox="0 0 32 32">
    <g>
      <path d="M13,11c0.6,0,1-0.4,1-1s-0.4-1-1-1c-5,0-9,4-9,9c0,2.8,2.2,5,5,5s5-2.2,5-5s-2.2-5-5-5c-0.3,0-0.7,0-1,0.1
		C9.3,11.8,11,11,13,11z"></path>
      <path d="M23,13c-0.3,0-0.7,0-1,0.1c1.3-1.3,3-2.1,5-2.1c0.6,0,1-0.4,1-1s-0.4-1-1-1c-5,0-9,4-9,9c0,2.8,2.2,5,5,5s5-2.2,5-5
		S25.8,13,23,13z"></path>
    </g>
  </symbol>
  <symbol fill="none" xmlns="http://www.w3.org/2000/svg" viewBox="0 0 32 32" id="wordpress">
    <circle cx="16" cy="16" r="14" fill="#028CB0"></circle>
    <path d="M6.45538 16C6.45538 19.7823 8.65538 23.04 11.8369 24.5885L7.28462 12.1162C6.73798 13.338 6.45541 14.6615 6.45538 16ZM16 25.5446C17.1085 25.5446 18.1746 25.35 19.1731 25.0031L19.1054 24.8762L16.1692 16.8377L13.3092 25.1554C14.1554 25.4092 15.0608 25.5446 16 25.5446ZM17.3115 11.5238L20.7638 21.7877L21.72 18.6062C22.1262 17.2862 22.4392 16.3385 22.4392 15.5177C22.4392 14.3331 22.0162 13.5208 21.6608 12.8946C21.17 12.0992 20.7215 11.4308 20.7215 10.6523C20.7215 9.77231 21.3815 8.96 22.3292 8.96H22.4477C20.689 7.34546 18.3874 6.45141 16 6.45538C14.4192 6.45509 12.8632 6.84777 11.4718 7.59809C10.0805 8.34842 8.89746 9.43285 8.02923 10.7538L8.63846 10.7708C9.63692 10.7708 11.1769 10.6438 11.1769 10.6438C11.7015 10.6185 11.7608 11.3715 11.2446 11.4308C11.2446 11.4308 10.7285 11.4985 10.1446 11.5238L13.6308 21.8638L15.7208 15.6023L14.2315 11.5238C13.898 11.5054 13.565 11.4772 13.2331 11.4392C12.7169 11.4054 12.7762 10.6185 13.2923 10.6438C13.2923 10.6438 14.8662 10.7708 15.8054 10.7708C16.8038 10.7708 18.3438 10.6438 18.3438 10.6438C18.86 10.6185 18.9277 11.3715 18.4115 11.4308C18.4115 11.4308 17.8954 11.49 17.3115 11.5238ZM20.7977 24.25C22.2416 23.4104 23.4399 22.2066 24.2729 20.7589C25.1059 19.3112 25.5444 17.6703 25.5446 16C25.5446 14.3415 25.1215 12.7846 24.3769 11.4223C24.5281 12.9211 24.3012 14.4339 23.7169 15.8223L20.7977 24.25ZM16 27C13.0826 27 10.2847 25.8411 8.22183 23.7782C6.15893 21.7153 5 18.9174 5 16C5 13.0826 6.15893 10.2847 8.22183 8.22183C10.2847 6.15893 13.0826 5 16 5C18.9174 5 21.7153 6.15893 23.7782 8.22183C25.8411 10.2847 27 13.0826 27 16C27 18.9174 25.8411 21.7153 23.7782 23.7782C21.7153 25.8411 18.9174 27 16 27Z" fill="white"></path>
  </symbol>
  <symbol fill="#000000" version="1.1" id="snap" xmlns="http://www.w3.org/2000/svg" xmlns:xlink="http://www.w3.org/1999/xlink" enable-background="new 0 0 72 72" xml:space="preserve" viewBox="0 0 72 72">
    <g>
      <path d="M61.568,4.5H10.432C6.604,4.5,3.5,7.604,3.5,11.432v49.136c0,3.828,3.104,6.933,6.932,6.933h51.136
		c3.828,0,6.932-3.104,6.932-6.933h0.001V11.432C68.501,7.604,65.396,4.5,61.568,4.5z M7.5,60.568v-9.591l14.159-20.253
		c0.437-0.625,1.046-1.002,1.716-1.061c0.677-0.067,1.337,0.206,1.876,0.745l12.44,12.439L22.319,63.501H10.432
		C8.813,63.501,7.5,62.188,7.5,60.568z M64.501,60.568c0,1.619-1.313,2.933-2.933,2.933H24.811l17.733-23.823
		c0.464-0.621,1.112-0.998,1.828-1.061c0.722-0.061,1.419,0.195,1.981,0.727l10.938,10.318c0.4,0.379,1.034,0.359,1.414-0.041
		c0.379-0.402,0.359-1.035-0.041-1.414L47.727,37.889c-0.984-0.928-2.242-1.38-3.531-1.264c-1.291,0.113-2.447,0.773-3.256,1.859
		l-2.041,2.742L26.666,28.994c-0.966-0.966-2.196-1.432-3.466-1.323c-1.27,0.111-2.4,0.789-3.18,1.907L7.5,47.487V11.432
		C7.5,9.813,8.813,8.5,10.432,8.5h51.136c1.619,0,2.932,1.313,2.932,2.932h0.001V60.568z"></path>
      <path d="M61.076,50.48c-0.401-0.379-1.035-0.36-1.413,0.039c-0.38,0.402-0.361,1.035,0.04,1.414l1.195,1.129
		c0.193,0.182,0.44,0.273,0.687,0.273c0.267,0,0.53-0.105,0.726-0.314c0.381-0.399,0.361-1.033-0.039-1.412L61.076,50.48z"></path>
      <path d="M44.771,12.372c-4.766,0-8.642,3.876-8.642,8.641c0,4.765,3.876,8.642,8.642,8.642c4.764,0,8.642-3.877,8.642-8.642
		C53.413,16.248,49.536,12.372,44.771,12.372z M44.771,27.656c-3.662,0-6.642-2.979-6.642-6.642s2.979-6.641,6.642-6.641
		s6.642,2.978,6.642,6.641S48.434,27.656,44.771,27.656z"></path>
    </g>
  </symbol>
  <symbol fill="none" xmlns="http://www.w3.org/2000/svg" viewBox="0 0 24 24" id="menu">
    <path d="M3 7H21" stroke="#292D32" stroke-width="1.5" stroke-linecap="round"></path>
    <path d="M3 12H21" stroke="#292D32" stroke-width="1.5" stroke-linecap="round"></path>
    <path d="M3 17H21" stroke="#292D32" stroke-width="1.5" stroke-linecap="round"></path>
  </symbol>
  <symbol xmlns="http://www.w3.org/2000/svg" viewBox="0 0 460 512" id="search">
    <path d="M220.6 130.3l-67.2 28.2V43.2L98.7 233.5l54.7-24.2v130.3l67.2-209.3zm-83.2-96.7l-1.3 4.7-15.2 52.9C80.6 106.7 52 145.8 52 191.5c0 52.3 34.3 95.9 83.4 105.5v53.6C57.5 340.1 0 272.4 0 191.6c0-80.5 59.8-147.2 137.4-158zm311.4 447.2c-11.2 11.2-23.1 12.3-28.6 10.5-5.4-1.8-27.1-19.9-60.4-44.4-33.3-24.6-33.6-35.7-43-56.7-9.4-20.9-30.4-42.6-57.5-52.4l-9.7-14.7c-24.7 16.9-53 26.9-81.3 28.7l2.1-6.6 15.9-49.5c46.5-11.9 80.9-54 80.9-104.2 0-54.5-38.4-102.1-96-107.1V32.3C254.4 37.4 320 106.8 320 191.6c0 33.6-11.2 64.7-29 90.4l14.6 9.6c9.8 27.1 31.5 48 52.4 57.4s32.2 9.7 56.8 43c24.6 33.2 42.7 54.9 44.5 60.3s.7 17.3-10.5 28.5zm-9.9-17.9c0-4.4-3.6-8-8-8s-8 3.6-8 8 3.6 8 8 8 8-3.6 8-8z"></path>
  </symbol>
  <symbol xmlns="http://www.w3.org/2000/svg" viewBox="0 0 512 512" id="clock">
    <path d="M232 120C232 106.7 242.7 96 256 96C269.3 96 280 106.7 280 120V243.2L365.3 300C376.3 307.4 379.3 322.3 371.1 333.3C364.6 344.3 349.7 347.3 338.7 339.1L242.7 275.1C236 271.5 232 264 232 255.1L232 120zM256 0C397.4 0 512 114.6 512 256C512 397.4 397.4 512 256 512C114.6 512 0 397.4 0 256C0 114.6 114.6 0 256 0zM48 256C48 370.9 141.1 464 256 464C370.9 464 464 370.9 464 256C464 141.1 370.9 48 256 48C141.1 48 48 141.1 48 256z"></path>
  </symbol>
  <symbol fill="#000000" version="1.1" id="computer" xmlns="http://www.w3.org/2000/svg" xmlns:xlink="http://www.w3.org/1999/xlink" xml:space="preserve" viewBox="0 0 56.04 56.04">
    <g>
      <g>
        <path d="M3.246,48.041h10.552c-0.02,0.109-0.042,0.219-0.042,0.333v5.333c0,1.309,1.318,2.333,3,2.333h14.667
			c1.682,0,3-1.024,3-2.333v-5.333c0-0.114-0.022-0.224-0.043-0.333h11.864c1.654,0,3-1.346,3-3V25.284
			c0.625,0.063,1.276-0.125,1.733-0.583l1.437-1.436c0.413-0.413,0.632-0.965,0.616-1.469c0.037-0.61-0.188-1.207-0.616-1.637
			l-0.286-0.286c0.082-0.151,0.166-0.309,0.25-0.475c0.354-0.707,0.637-1.432,0.842-2.164h0.441c0.57,0,1.105-0.222,1.508-0.625
			c0.403-0.403,0.625-0.938,0.624-1.596v-2.032c0-0.507-0.183-0.986-0.528-1.387c-0.41-0.473-0.994-0.745-1.604-0.745h-0.441
			c-0.205-0.732-0.487-1.458-0.844-2.166c-0.083-0.165-0.167-0.323-0.25-0.473l0.288-0.287c0.429-0.429,0.652-1.025,0.616-1.55
			c0.016-0.59-0.205-1.143-0.617-1.555l-1.438-1.436c-0.805-0.807-2.209-0.806-3.014-0.001l-0.313,0.313
			c-0.854-0.487-1.759-0.861-2.702-1.12V2.132C44.947,0.957,43.99,0,42.814,0h-2.032c-1.177,0-2.132,0.957-2.132,2.132v0.447
			c-0.949,0.26-1.854,0.633-2.701,1.115L35.635,3.38c-0.807-0.804-2.211-0.804-3.015,0.001l-1.437,1.436
			c-0.412,0.412-0.633,0.963-0.618,1.473c-0.035,0.611,0.19,1.206,0.616,1.631l0.289,0.288c-0.084,0.152-0.168,0.311-0.25,0.477
			c-0.058,0.115-0.103,0.236-0.152,0.354H3.246c-1.654,0-3,1.346-3,3v33C0.246,46.695,1.592,48.041,3.246,48.041z M31.424,54.04
			H16.757c-0.602,0-0.962-0.258-1-0.333v-0.814H32.43v0.789C32.387,53.782,32.026,54.04,31.424,54.04z M32.424,48.374l0.002,2.519
			H15.754L15.752,48.4c0.042-0.102,0.403-0.359,1.004-0.359h14.667C32.026,48.041,32.387,48.299,32.424,48.374z M28.43,16.609
			c0.402,0.403,0.938,0.625,1.507,0.625h0.449c0.205,0.735,0.484,1.46,0.838,2.164c0.082,0.166,0.166,0.324,0.25,0.475l-0.287,0.287
			c-0.428,0.427-0.653,1.022-0.619,1.552c-0.014,0.59,0.206,1.142,0.617,1.552l1.438,1.437c0.805,0.806,2.208,0.806,3.016,0
			l0.313-0.313c0.849,0.482,1.752,0.855,2.701,1.115v0.447c0,1.175,0.957,2.132,2.132,2.132h2.032c0.155,0,0.305-0.02,0.45-0.05
			c0.049-0.011,0.093-0.03,0.141-0.043c0.096-0.028,0.188-0.056,0.277-0.095c0.052-0.023,0.1-0.054,0.148-0.082
			c0.077-0.042,0.154-0.084,0.225-0.136c0.05-0.035,0.093-0.075,0.139-0.114c0.064-0.055,0.126-0.11,0.184-0.172
			c0.016-0.018,0.037-0.032,0.053-0.051V38.04H5.059v-23h22.747v0.06C27.805,15.67,28.027,16.206,28.43,16.609z M32.602,6.232
			l1.437-1.438l0.093-0.039c0.025,0,0.063,0.007,0.094,0.039l0.873,0.872c0.336,0.336,0.863,0.39,1.261,0.125
			c1.057-0.703,2.231-1.188,3.493-1.443c0.468-0.094,0.803-0.504,0.803-0.98V2.131c0-0.073,0.061-0.132,0.132-0.132h2.032
			c0.072,0,0.133,0.059,0.133,0.132v1.232c0,0.477,0.336,0.887,0.805,0.98c1.248,0.25,2.422,0.737,3.492,1.448
			c0.396,0.264,0.926,0.21,1.262-0.125l0.871-0.872c0.051-0.051,0.135-0.052,0.187,0.001l1.438,1.437c0,0,0.032,0.175,0.033,0.176
			c0.002,0.042-0.009,0.075-0.033,0.1l-0.839,0.838c-0.334,0.335-0.389,0.858-0.13,1.254c0.188,0.287,0.37,0.608,0.559,0.982
			c0.405,0.805,0.695,1.633,0.861,2.463c0.094,0.467,0.504,0.803,0.98,0.803h1.229c0.029,0,0.06,0.018,0.091,0.054l0.756-0.655
			l-0.715,0.821v2.033c0,0.062-0.07,0.131-0.132,0.131h-1.229c-0.477,0-0.887,0.336-0.98,0.803c-0.167,0.83-0.457,1.658-0.859,2.461
			c-0.19,0.376-0.373,0.698-0.561,0.984c-0.259,0.396-0.205,0.919,0.13,1.254l0.837,0.837c0.025,0.025,0.037,0.059,0.035,0.101
			c-0.002,0.029-0.033,0.147-0.033,0.176l-1.438,1.438c-0.052,0.051-0.134,0.051-0.187,0l-0.871-0.872
			c-0.084-0.084-0.18-0.151-0.283-0.199c-0.104-0.048-0.213-0.078-0.325-0.089c-0.224-0.022-0.455,0.031-0.654,0.163
			c-0.638,0.425-1.36,0.783-2.147,1.063c-0.504,0.18-0.93,0.302-1.344,0.385c-0.351,0.07-0.627,0.319-0.744,0.639
			c-0.039,0.107-0.06,0.222-0.06,0.341v1.232c0,0.073-0.06,0.132-0.133,0.132h-2.032c-0.072,0-0.132-0.059-0.132-0.132v-1.237
			c0-0.476-0.335-0.886-0.802-0.98c-1.262-0.254-2.438-0.74-3.494-1.443c-0.094-0.062-0.194-0.103-0.297-0.13
			c-0.032-0.009-0.064-0.009-0.098-0.014c-0.053-0.009-0.105-0.023-0.158-0.023c-0.017,0-0.03,0.008-0.047,0.009
			c-0.08,0.004-0.158,0.023-0.235,0.046c-0.039,0.012-0.078,0.016-0.116,0.032c-0.113,0.049-0.219,0.115-0.311,0.206l-0.871,0.871
			c-0.031,0.033-0.068,0.04-0.094,0.04l-1.531-1.476c0,0-0.033-0.172-0.033-0.173c-0.002-0.043,0.009-0.077,0.035-0.103l0.838-0.839
			c0.334-0.334,0.388-0.857,0.13-1.253c-0.187-0.287-0.37-0.609-0.558-0.981c-0.399-0.8-0.688-1.629-0.857-2.465
			c-0.094-0.466-0.504-0.802-0.98-0.802H29.94c-0.062,0-0.132-0.069-0.132-0.221v-0.972v-0.972l0.041-0.167
			c0.021-0.024,0.054-0.053,0.09-0.053h1.236c0.476,0,0.885-0.335,0.979-0.802c0.101-0.496,0.262-1.016,0.509-1.637
			c0-0.001,0-0.002,0.001-0.003l0.045-0.114c0.095-0.24,0.188-0.482,0.304-0.71c0.188-0.374,0.371-0.696,0.558-0.983
			c0.258-0.396,0.204-0.918-0.13-1.253l-0.84-0.84c-0.024-0.024-0.035-0.059-0.033-0.102C32.568,6.378,32.602,6.259,32.602,6.232z
			 M2.246,12.041c0-0.551,0.449-1,1-1h25.821c-0.001,0-0.002,0.001-0.003,0.001c-0.078,0.036-0.148,0.087-0.222,0.133
			c-0.056,0.035-0.116,0.062-0.169,0.102c-0.122,0.092-0.235,0.198-0.337,0.316c-0.086,0.1-0.162,0.204-0.228,0.314
			c-0.021,0.034-0.033,0.072-0.051,0.107c-0.041,0.078-0.083,0.156-0.114,0.239c-0.017,0.046-0.025,0.097-0.039,0.144
			c-0.022,0.078-0.048,0.155-0.063,0.238c-0.009,0.054-0.009,0.114-0.015,0.17c-0.008,0.078-0.021,0.153-0.021,0.235H4.059
			c-0.552,0-1,0.448-1,1v25c0,0.552,0.448,1,1,1h41.375c0.553,0,1-0.448,1-1V24.978c0.059-0.024,0.113-0.054,0.17-0.079
			c0.117-0.051,0.229-0.105,0.343-0.159c0.101-0.047,0.203-0.09,0.3-0.14v20.44c0,0.552-0.449,1-1,1H31.424H16.757H3.247
			c-0.551,0-1-0.448-1-1L2.246,12.041L2.246,12.041z"></path>
        <path d="M32.881,14.036c0,0.001,0,0.002,0,0.003c0,0.002,0,0.005,0,0.008c0.019,3.438,2.008,6.545,5.098,8.012
			c0.089,0.09,0.195,0.164,0.315,0.216c1.13,0.487,2.312,0.734,3.509,0.734c1.178,0,2.34-0.238,3.453-0.708
			c0.116-0.049,0.221-0.126,0.307-0.221c0.062-0.032,0.123-0.064,0.185-0.098l0.147-0.079c0,0,0,0,0.002,0
			c1.261-0.654,2.354-1.599,3.164-2.733c1.08-1.511,1.654-3.282,1.664-5.133c-0.002-0.629-0.09-1.29-0.264-2.02
			c-0.632-2.65-2.445-4.875-4.884-6.018c-0.09-0.091-0.198-0.165-0.321-0.217c-2.248-0.949-4.721-0.94-6.961,0.025
			c-0.107,0.046-0.205,0.116-0.287,0.202c-1.598,0.753-2.922,1.965-3.845,3.522c-0.474,0.8-0.817,1.636-1.019,2.485
			C32.971,12.746,32.883,13.407,32.881,14.036z M47.246,18.237c-0.036,0.045-0.072,0.09-0.109,0.135
			c-0.188,0.228-0.391,0.444-0.607,0.646c-0.032,0.03-0.062,0.063-0.096,0.093v-5.07c0-0.552-0.447-1-1-1H34.982
			c0.031-0.182,0.059-0.361,0.105-0.561c0.07-0.293,0.17-0.585,0.284-0.875c0.033-0.084,0.072-0.167,0.108-0.251
			c0.046-0.105,0.104-0.208,0.156-0.313h10.608c0.552,0,1,0.449,1,1L47.246,18.237L47.246,18.237z M39.376,20.556
			c-0.084-0.08-0.183-0.145-0.293-0.192c-0.299-0.128-0.583-0.279-0.856-0.444c-0.092-0.056-0.176-0.121-0.266-0.181
			c-0.175-0.117-0.348-0.236-0.51-0.368c-0.098-0.079-0.189-0.166-0.282-0.25c-0.14-0.126-0.276-0.255-0.403-0.392
			c-0.092-0.097-0.178-0.197-0.264-0.299c-0.115-0.138-0.225-0.28-0.328-0.426c-0.08-0.11-0.156-0.222-0.229-0.337
			c-0.096-0.15-0.18-0.306-0.264-0.463c-0.062-0.12-0.127-0.239-0.184-0.362c-0.076-0.169-0.14-0.344-0.201-0.52
			c-0.043-0.119-0.093-0.236-0.129-0.358c-0.068-0.232-0.119-0.471-0.164-0.711c-0.013-0.07-0.035-0.137-0.045-0.208
			c0-0.001,0-0.003,0-0.004h9.475v5.362c-0.082,0.042-0.157,0.097-0.226,0.163C42.635,21.158,40.947,21.154,39.376,20.556z"></path>
      </g>
    </g>
  </symbol>
  <symbol fill="#000000" version="1.1" id="growth" xmlns="http://www.w3.org/2000/svg" xmlns:xlink="http://www.w3.org/1999/xlink" xml:space="preserve" viewBox="0 0 490 490">
    <g>
      <g>
        <g>
          <path d="M440,450V100c0-5.522-4.477-10-10-10h-70c-5.523,0-10,4.478-10,10v350h-10V190c0-5.522-4.477-10-10-10h-70
				c-5.523,0-10,4.478-10,10v260h-10V250c0-5.522-4.477-10-10-10h-70c-5.523,0-10,4.478-10,10v200h-10V320c0-5.522-4.477-10-10-10
				H60c-5.523,0-10,4.478-10,10v130H0v20h490v-20H440z M120,450H70v-75h50V450z M120,355H70v-25h50V355z M220,450h-50V305h50V450z
				 M220,285h-50v-25h50V285z M320,450h-50V245h50V450z M320,225h-50v-25h50V225z M420,450h-50V155h50V450z M420,135h-50v-25h50V135
				z"></path>
          <path d="M57.072,282.072L285,54.143V90h20V30c0-5.522-4.477-10-10-10h-65v20h40.857L42.929,267.929L57.072,282.072z"></path>
        </g>
      </g>
    </g>
  </symbol>
</svg>